<svg width="19" height="19" viewBox="0 0 19 19" fill="none" xmlns="http://www.w3.org/2000/svg">
<rect width="19" height="19" rx="5" fill="white"/>
<path d="M10.5 10.5058L7.5 11.0458L8 8.0058L13.73 2.2958C13.823 2.20207 13.9336 2.12768 14.0554 2.07691C14.1773 2.02614 14.308 2 14.44 2C14.572 2 14.7027 2.02614 14.8246 2.07691C14.9464 2.12768 15.057 2.20207 15.15 2.2958L16.21 3.3558C16.3037 3.44876 16.3781 3.55936 16.4289 3.68122C16.4797 3.80308 16.5058 3.93379 16.5058 4.0658C16.5058 4.19781 16.4797 4.32852 16.4289 4.45037C16.3781 4.57223 16.3037 4.68284 16.21 4.7758L10.5 10.5058Z" stroke="black" stroke-linecap="round" stroke-linejoin="round"/>
<path d="M15.5 11.0059V14.0059C15.5 14.2711 15.3946 14.5254 15.2071 14.713C15.0196 14.9005 14.7652 15.0059 14.5 15.0059H5C4.73478 15.0059 4.48043 14.9005 4.29289 14.713C4.10536 14.5254 4 14.2711 4 14.0059V4.50586C4 4.24064 4.10536 3.98629 4.29289 3.79875C4.48043 3.61122 4.73478 3.50586 5 3.50586H8" stroke="black" stroke-linecap="round" stroke-linejoin="round"/>
</svg>
